<?xml version="1.0" standalone="no"?>
<!DOCTYPE svg PUBLIC "-//W3C//DTD SVG 1.1//EN" "http://www.w3.org/Graphics/SVG/1.1/DTD/svg11.dtd" >
<svg xmlns="http://www.w3.org/2000/svg">
<metadata>Generated by IcoMoon</metadata>
<defs>
<font id="icomoon" horiz-adv-x="1024">
<font-face units-per-em="1024" ascent="960" descent="-64" />
<missing-glyph horiz-adv-x="1024" />
<glyph unicode="&#x20;" d="" horiz-adv-x="512" />
<glyph unicode="&#xe600;" d="M648.101 263.939l-136.101 99.808-136.101-98.511 51.848 156.841-134.805 97.215h168.506l51.848 159.433 51.848-159.433h168.506l-137.397-95.919 51.848-159.433zM512 396.152l85.549-62.218-32.405 99.808 85.549 60.922h-106.289l-32.405 101.104-32.405-102.4h-104.992l85.549-60.922-32.405-99.808 84.253 63.514z" />
<glyph unicode="&#xe601;" d="M721.985 396.152v103.696h-46.663c-2.592 9.073-6.481 16.851-10.37 25.924l32.405 32.405-72.587 72.587-31.109-31.109c-7.777 3.889-16.851 7.777-25.924 11.666v44.071h-103.696v-44.071c-9.073-2.592-18.147-6.481-25.924-11.666l-31.109 31.109-72.587-72.587 32.405-32.405c-3.889-7.777-7.777-16.851-10.37-25.924h-46.663v-103.696h47.959c2.592-7.777 6.481-15.554 10.37-23.332l-34.997-34.997 72.587-72.587 34.997 34.997c7.777-3.889 15.554-6.481 23.332-9.073v-49.256h103.696v49.256c7.777 2.592 15.554 5.185 23.332 9.073l34.997-34.997 72.587 72.587-33.701 33.701c3.889 7.777 7.777 15.554 10.37 23.332h46.663zM662.359 337.823l-36.294-36.294-29.813 29.813-9.073-5.185c-10.37-6.481-22.035-10.37-34.997-14.258l-10.37-2.592v-42.775h-51.848v42.775l-9.073 2.592c-12.962 2.592-24.628 7.777-34.997 14.258l-9.073 5.185-29.813-29.813-37.59 36.294 29.813 29.813-3.889 9.073c-6.481 11.666-11.666 23.332-15.554 34.997l-2.592 9.073h-41.478v51.848h40.182l2.592 10.37c2.592 12.962 7.777 25.924 14.258 37.59l5.185 9.073-27.22 27.22 36.294 36.294 27.22-27.22 9.073 5.185c11.666 7.777 24.628 12.962 37.59 15.554l10.37 2.592v38.886h51.848v-38.886l10.37-2.592c12.962-3.889 25.924-9.073 37.59-15.554l9.073-5.185 27.22 27.22 36.294-36.294-27.22-27.22 5.185-9.073c6.481-11.666 11.666-24.628 14.258-37.59l2.592-10.37h40.182v-51.848h-41.478l-2.592-9.073c-3.889-12.962-9.073-24.628-15.554-34.997l-5.185-9.073 28.516-29.813zM515.889 514.106c-37.59 0-67.403-29.813-67.403-67.403s29.813-67.403 67.403-67.403c37.59 0 67.403 29.813 67.403 67.403s-29.813 67.403-67.403 67.403zM515.889 406.522c-23.332 0-41.478 18.147-41.478 41.478s18.147 41.478 41.478 41.478c23.332 0 41.478-18.147 41.478-41.478s-18.147-41.478-41.478-41.478z" />
<glyph unicode="&#xe602;" d="M512 715.018c-103.696 0-187.949-84.253-187.949-187.949 0-59.625 27.22-114.066 73.884-149.063l3.889-2.592c10.37-9.073 27.22-29.813 27.22-57.033v-136.101h165.914v134.805c0 28.516 16.851 49.256 27.22 58.329l2.592 2.592c46.663 36.294 73.884 90.734 73.884 149.063 1.296 103.696-82.957 187.949-186.653 187.949zM512 206.906h-57.033v53.144h114.066v-53.144h-57.033zM512 514.106c-7.777 0-12.962 6.481-12.962 12.962s6.481 12.962 12.962 12.962 12.962-6.481 12.962-12.962-5.185-12.962-12.962-12.962zM609.215 397.448l-2.592-2.592c-16.851-14.258-37.59-42.775-37.59-79.068v-29.813h-44.071v203.504c15.554 5.185 25.924 19.443 25.924 36.294 0 22.035-18.147 38.886-38.886 38.886-22.035 0-38.886-18.147-38.886-38.886 0-16.851 10.37-31.109 25.924-36.294v-203.504h-44.071v29.813c0 36.294-20.739 64.81-37.59 79.068l-2.592 2.592c-40.182 31.109-63.514 77.772-63.514 128.324 0 89.438 72.587 162.025 162.025 162.025s162.025-72.587 162.025-162.025c-1.296-50.552-24.628-97.215-66.106-128.324z" />
<glyph unicode="&#xe603;" d="M295.534 380.597c-37.59 0-67.403 29.813-67.403 67.403s29.813 67.403 67.403 67.403c37.59 0 67.403-29.813 67.403-67.403s-31.109-67.403-67.403-67.403zM295.534 489.478c-23.332 0-41.478-18.147-41.478-41.478s18.147-41.478 41.478-41.478 41.478 18.147 41.478 41.478-19.443 41.478-41.478 41.478zM728.466 380.597c-37.59 0-67.403 29.813-67.403 67.403s29.813 67.403 67.403 67.403c37.59 0 67.403-29.813 67.403-67.403s-29.813-67.403-67.403-67.403zM728.466 489.478c-23.332 0-41.478-18.147-41.478-41.478s18.147-41.478 41.478-41.478 41.478 18.147 41.478 41.478-18.147 41.478-41.478 41.478zM512 380.597c-37.59 0-67.403 29.813-67.403 67.403s29.813 67.403 67.403 67.403c37.59 0 67.403-29.813 67.403-67.403s-29.813-67.403-67.403-67.403zM512 489.478c-23.332 0-41.478-18.147-41.478-41.478s18.147-41.478 41.478-41.478 41.478 18.147 41.478 41.478-18.147 41.478-41.478 41.478z" />
<glyph unicode="&#xe604;" d="M659.767 448c0 47.959-23.332 90.734-59.625 117.954v107.585h-176.284v-107.585c-36.294-27.22-59.625-69.995-59.625-117.954s23.332-90.734 59.625-117.954v-107.585h176.284v107.585c36.294 27.22 59.625 69.995 59.625 117.954zM449.782 647.615h124.435v-66.106c-19.443 9.073-40.182 14.258-62.218 14.258s-42.775-5.185-62.218-14.258v66.106zM390.157 448c0 67.403 54.441 121.843 121.843 121.843s121.843-54.441 121.843-121.843c0-67.403-54.441-121.843-121.843-121.843s-121.843 54.441-121.843 121.843zM574.218 248.385h-124.435v66.106c19.443-9.073 40.182-14.258 62.218-14.258s42.775 5.185 62.218 14.258v-66.106z" />
<glyph unicode="&#xe605;" d="M649.035 613.647l-138.541-138.541-138.541 138.541-21.082-22.588 138.541-137.035-138.541-138.541 21.082-21.082 138.541 138.541 138.541-138.541 21.082 21.082-138.541 138.541 138.541 137.035z" />
<glyph unicode="&#xe606;" d="M524.962 459.666v167.21c40.182-6.481 71.291-41.478 71.291-82.957h25.924c0 60.922-49.256 110.177-110.177 110.177s-110.177-49.256-110.177-108.881c0-55.737 42.775-102.4 97.215-108.881v-167.21c-40.182 5.185-71.291 40.182-71.291 81.661h-25.924c0-60.922 49.256-110.177 110.177-110.177s110.177 50.552 110.177 110.177c0 57.033-42.775 102.4-97.215 108.881zM427.747 545.215c0 41.478 31.109 76.476 71.291 82.957v-165.914c-40.182 6.481-71.291 40.182-71.291 82.957zM524.962 269.124v164.618c40.182-6.481 71.291-41.478 71.291-82.957s-31.109-76.476-71.291-81.661z" />
<glyph unicode="&#xe607;" d="M527.059 643.765h-30.118v-180.706h-195.765v-30.118h195.765v-210.824h30.118v210.824h195.765v30.118h-195.765z" />
<glyph unicode="&#xe608;" d="M1263.66 837.991c-45.753-19.609-95.864-34.86-148.153-41.396 54.468 32.681 93.685 82.791 113.294 143.796-50.111-30.502-104.579-50.111-165.583-63.183-45.753 52.289-113.294 82.791-187.37 82.791-143.796 0-259.268-115.472-259.268-259.268 0-19.609 2.179-39.217 6.536-58.826-215.694 10.894-407.421 113.294-535.966 270.162-21.787-37.038-34.86-82.791-34.86-128.545 0-89.328 45.753-167.762 115.472-215.694-43.574 2.179-82.791 13.072-117.651 32.681 0 0 0-2.179 0-2.179 0-124.187 89.328-228.766 206.979-252.732-21.787-6.536-43.574-8.715-67.54-8.715-17.43 0-32.681 2.179-47.932 4.357 32.681-102.4 128.545-176.477 241.838-178.655-89.328-69.719-200.443-111.115-322.451-111.115-21.787 0-41.396 2.179-61.004 4.357 115.472-76.255 250.553-119.83 396.528-119.83 477.14 0 738.587 394.349 738.587 736.409 0 10.894 0 21.787 0 32.681 50.111 37.038 93.685 82.791 128.545 132.902z" horiz-adv-x="1264" />
<glyph unicode="&#xe609;" d="M521.91 378.632c-95.794 71.019-120.568 110.658-28.077 181.677 51.2 39.639 87.535 95.794 87.535 161.858 0 72.671-29.729 137.084-84.232 170.116h77.626l66.065 67.716c0 0-251.045 0-298.942 0-183.329 0-274.168-112.31-274.168-236.181 0-125.523 85.884-226.271 254.348-226.271-26.426-52.852-14.865-102.4 26.426-137.084-287.381 1.652-348.49-125.523-348.49-222.968 0-125.523 143.69-201.497 317.11-201.497 236.181 0 331.974 127.174 331.974 231.226 0 84.232-31.381 138.735-127.174 211.406zM180.026 727.123c-14.865 107.355 39.639 188.284 120.568 184.981 79.277-1.652 148.645-89.187 161.858-194.89s-33.032-175.071-112.31-171.768c-80.929 1.652-156.903 75.974-170.116 181.677zM318.761-7.845c-120.568 0-206.452 75.974-206.452 168.465 0 89.187 100.748 166.813 221.316 166.813 132.129 0 211.406-82.581 211.406-170.116 0-92.49-72.671-165.161-226.271-165.161zM857.187 537.187v113.961h-71.019v-113.961h-112.31v-72.671h112.31v-117.265h71.019v117.265h117.265v71.019h-117.265z" horiz-adv-x="974" />
<glyph unicode="&#xe60a;" d="M318.15-64h-211.607v512h-106.543v176.092h106.543v106.543c0 143.538 59.191 229.364 229.364 229.364h142.058v-176.092h-88.786c-66.59 0-71.029-25.156-71.029-71.029v-88.786h159.815l-19.237-176.092h-142.058v-512z" horiz-adv-x="478" />
<glyph unicode="&#xe60b;" d="M475.182 577.438l131.739-131.739-131.739-131.739v263.479zM452.171 632.665v-374.508l187.542 187.542-187.542 186.966z" />
<glyph unicode="&#xe60c;" d="M0 960h1024l-1024-1024z" />
<glyph unicode="&#xe60d;" d="M1018.849 964.383l9.527-9.527-1024.179-1024.179-9.527 9.527 1024.179 1024.179z" />
<glyph unicode="&#xe60e;" d="M512-64c-269.536 0-488.46 220.101-488.46 491.991 0 201.269 120.055 380.175 306.023 455.503l8.239-21.186c-176.552-71.798-290.722-242.464-290.722-434.317 0-258.943 208.331-468.451 464.92-468.451s464.92 209.508 464.92 468.451c0 191.853-114.17 362.52-291.899 434.317l9.416 21.186c185.968-75.329 306.023-254.234 306.023-456.68 0-270.713-218.924-490.814-488.46-490.814zM500.23 960h23.54v-486.106h-23.54v486.106z" />
<glyph unicode="&#xe60f;" d="M0 961.177v-1024h1024v1024h-1024zM1000.46 937.637v-216.57h-976.92v216.57h976.92zM23.54-39.283v736.809h976.92v-736.809h-976.92zM337.802 841.122h65.913v-23.54h-65.913v23.54zM628.524 841.122h65.913v-23.54h-65.913v23.54zM257.766 508.028h101.223v-391.945h23.54v415.485h-124.763zM548.487 508.028h101.223v-391.945h23.54v415.485h-124.763z" />
<glyph unicode="&#xe610;" d="M701.499 715.182v244.818h-378.998v-244.818c-84.745-58.851-140.064-156.543-140.064-267.182s55.32-208.331 140.064-267.182v-244.818h378.998v244.818c84.745 58.851 140.064 156.543 140.064 267.182s-55.32 208.331-140.064 267.182zM344.864 936.46h333.094v-207.154c-49.434 28.248-105.931 44.726-167.136 44.726s-117.701-16.478-167.136-44.726v207.154zM679.136-40.46h-334.271v205.977c49.434-28.248 105.931-44.726 167.136-44.726s117.701 16.478 167.136 44.726v-205.977zM512 144.331c-169.49 0-307.2 136.533-307.2 303.669s137.71 303.669 307.2 303.669c169.49 0 307.2-136.533 307.2-303.669s-137.71-303.669-307.2-303.669z" />
<glyph unicode="&#xe611;" d="M913.361-64h-802.722c-40.018 0-57.674 29.425-57.674 57.674v118.878c0 37.664 17.655 65.913 52.966 81.214 47.080 21.186 169.49 65.913 248.349 89.453 0 4.708 0 14.124 0 18.832 0 27.071-2.354 45.903-9.416 60.028-9.416 20.009-21.186 55.32-25.894 87.099-11.77 15.301-27.071 43.549-37.664 92.984-9.416 47.080-4.708 65.913 1.177 82.391 1.177 2.354 1.177 2.354 1.177 3.531 1.177 7.062-1.177 57.674-8.239 101.223-5.885 30.602 1.177 96.515 42.372 150.657 28.248 32.956 77.683 74.152 167.136 80.037h52.966c90.63-5.885 140.064-47.080 167.136-81.214 41.195-54.143 48.257-118.878 42.372-150.657-8.239-43.549-10.593-94.161-8.239-102.4 0-1.177 0-1.177 1.177-2.354 7.062-17.655 11.77-35.31 2.354-83.568-9.416-49.434-25.894-77.683-37.664-92.984-4.708-31.779-16.478-65.913-25.894-87.099-5.885-12.947-9.416-32.956-9.416-60.028 0-3.531 0-14.124 0-18.832 77.683-23.54 201.269-68.267 248.349-89.453 34.133-15.301 52.966-42.372 52.966-81.214v-118.878c0-25.894-17.655-55.32-57.674-55.32zM536.717 936.46h-50.611c-80.037-4.708-124.763-42.372-148.303-71.798-36.487-47.080-43.549-104.754-38.841-131.825 7.062-42.372 10.593-97.692 8.239-110.639-1.177-2.354-1.177-4.708-2.354-5.885-4.708-11.77-9.416-25.894-1.177-70.621 9.416-48.257 23.54-72.975 34.133-84.745l2.354-2.354v-3.531c3.531-30.602 15.301-63.559 23.54-83.568 8.239-16.478 11.77-38.841 11.77-69.444 0-24.717 0-35.31-15.301-40.018-77.683-23.54-201.269-68.267-247.172-88.276-25.894-11.77-38.841-30.602-38.841-58.851v-118.878c2.354-5.885 3.531-36.487 36.487-36.487h803.899c32.956 0 34.133 30.602 34.133 34.133v118.878c0 28.248-12.947 48.257-38.841 58.851-47.080 21.186-169.49 65.913-247.172 88.276-15.301 4.708-15.301 15.301-15.301 40.018 0 30.602 3.531 52.966 11.77 69.444 9.416 20.009 20.009 52.966 23.54 83.568v3.531l2.354 2.354c10.593 11.77 24.717 36.487 34.133 84.745 8.239 44.726 3.531 58.851 0 69.444-1.177 2.354-1.177 4.708-2.354 5.885-2.354 12.947 1.177 69.444 8.239 111.816 4.708 27.071-1.177 83.568-38.841 131.825-23.54 31.779-68.267 69.444-149.48 74.152z" />
<glyph unicode="&#xe612;" d="M556.8 702.933v-264.533h184.533v20.267h-163.2v244.267zM567.467 902.4c-243.2 0-442.667-189.867-455.467-428.8l-97.067 97.067-14.933-16 121.6-121.6 121.6 121.6-14.933 14.933-96-94.933c13.867 226.133 202.667 406.4 434.133 406.4 241.067 0 436.267-194.133 436.267-432 0-238.933-195.2-433.067-435.2-433.067-116.267 0-225.067 44.8-308.267 126.933l-13.867-14.933c86.4-85.333 200.533-132.267 322.133-132.267 251.733 0 456.533 202.667 456.533 453.333 0 249.6-204.8 453.333-456.533 453.333z" />
<glyph unicode="&#xe613;" d="M512 960c-196.465 0-357.209-159.553-357.209-356.019 0-111.926 51.2-215.516 141.693-283.386l4.763-3.572c27.386-21.433 60.726-67.87 60.726-126.214v-254.809h300.056v253.619c0 57.153 32.149 103.591 59.535 125.023l5.953 4.763c90.493 67.87 141.693 171.46 141.693 284.577 0 196.465-160.744 356.019-357.209 356.019zM512-40.186h-126.214v132.167h252.428v-132.167h-126.214zM512 563.498c-22.623 0-40.484 17.86-40.484 39.293s17.86 39.293 40.484 39.293 40.484-17.86 40.484-39.293-17.86-39.293-40.484-39.293zM713.228 338.456l-4.763-3.572c-32.149-25.005-70.251-78.586-70.251-144.074v-73.823h-114.307v423.888c29.767 5.953 52.391 30.958 52.391 61.916 0 34.53-28.577 63.107-64.298 63.107s-64.298-28.577-64.298-63.107c0-30.958 22.623-57.153 52.391-61.916v-425.079h-114.307v73.823c0 66.679-38.102 119.070-70.251 145.265l-4.763 3.572c-84.54 63.107-132.167 160.744-132.167 265.526 0 183.367 150.028 332.205 333.395 332.205s333.395-148.837 333.395-332.205c0-104.781-47.628-202.419-132.167-265.526z" />
<glyph unicode="&#xe614;" d="M112.152 332.19c-62.171 0-112.152 52.419-112.152 115.81s49.981 115.81 112.152 115.81 112.152-52.419 112.152-115.81-49.981-115.81-112.152-115.81zM112.152 538.21c-48.762 0-87.771-40.229-87.771-90.21s39.010-90.21 87.771-90.21 87.771 40.229 87.771 90.21c0 49.981-39.010 90.21-87.771 90.21zM911.848 332.19c-62.171 0-112.152 52.419-112.152 115.81s49.981 115.81 112.152 115.81c62.171 0 112.152-52.419 112.152-115.81s-49.981-115.81-112.152-115.81zM911.848 538.21c-48.762 0-87.771-40.229-87.771-90.21s39.010-90.21 87.771-90.21c48.762 0 87.771 40.229 87.771 90.21s-39.010 90.21-87.771 90.21zM512 332.19c-62.171 0-112.152 52.419-112.152 115.81s49.981 115.81 112.152 115.81 112.152-52.419 112.152-115.81-49.981-115.81-112.152-115.81zM512 538.21c-48.762 0-87.771-40.229-87.771-90.21s39.010-90.21 87.771-90.21 87.771 40.229 87.771 90.21c0 49.981-39.010 90.21-87.771 90.21z" />
<glyph unicode="&#xe615;" d="M195.991-36.473l121.118 372.163-317.11 233.428h390.882l121.118 365.557 121.118-365.557h390.882l-316.009-233.428 121.118-368.86-317.11 224.619-316.009-227.923zM63.862 547.097l277.471-203.699-106.804-324.817 277.471 197.092 277.471-198.194-105.703 324.817 276.37 204.8h-342.434l-105.703 320.413-105.703-320.413h-342.434z" />
<glyph unicode="&#xe616;" d="M1024 345.6v204.8h-114.447c-9.035 37.647-24.094 75.294-42.165 108.424l79.812 79.812-144.565 144.565-78.306-78.306c-33.129 21.082-70.776 36.141-109.929 46.682v108.424h-204.8v-108.424c-39.153-10.541-75.294-25.6-109.929-46.682l-78.306 78.306-144.565-144.565 79.812-79.812c-19.576-33.129-33.129-69.271-42.165-108.424h-114.447v-204.8h117.459c10.541-36.141 25.6-70.776 43.671-102.4l-84.329-84.329 144.565-144.565 85.835 85.835c31.624-18.071 64.753-31.624 100.894-40.659v-123.482h204.8v121.976c36.141 9.035 69.271 22.588 100.894 40.659l85.835-85.835 144.565 144.565-84.329 84.329c19.576 31.624 34.635 66.259 43.671 102.4h120.471zM877.929 353.129c-9.035-33.129-22.588-64.753-40.659-94.871l-12.047-19.576 79.812-79.812-103.906-102.4-81.318 81.318-19.576-12.047c-28.612-16.565-60.235-30.118-93.365-37.647l-22.588-6.024v-115.953h-144.565v114.447l-22.588 6.024c-33.129 9.035-64.753 21.082-93.365 37.647l-19.576 12.047-16.565-16.565-64.753-63.247-102.4 102.4 79.812 79.812-12.047 19.576c-18.071 30.118-31.624 61.741-40.659 94.871l-6.024 22.588h-111.435v144.565h108.424l6.024 22.588c9.035 34.635 21.082 69.271 39.153 99.388l12.047 19.576-75.294 75.294 102.4 102.4 72.282-72.282 21.082 12.047c31.624 19.576 66.259 33.129 100.894 42.165l22.588 6.024v102.4h144.565v-100.894l22.588-6.024c36.141-9.035 69.271-24.094 100.894-42.165l19.576-12.047 16.565 16.565 57.224 54.212 102.4-102.4-75.294-75.294 12.047-19.576c18.071-31.624 31.624-64.753 39.153-99.388l6.024-22.588h108.424v-144.565h-109.929l-6.024-22.588zM512 621.176c-96.376 0-173.176-78.306-173.176-173.176 0-96.376 78.306-173.176 173.176-173.176s173.176 76.8 173.176 173.176c0 96.376-76.8 173.176-173.176 173.176zM512 304.941c-79.812 0-143.059 64.753-143.059 143.059s64.753 143.059 143.059 143.059 143.059-64.753 143.059-143.059c0-79.812-63.247-143.059-143.059-143.059z" />
<glyph unicode="&#xe617;" d="M839.442 448c0 110.735-54.772 208.372-139.312 267.907v244.093h-376.26v-244.093c-84.54-59.535-139.312-157.172-139.312-267.907s54.772-208.372 139.312-267.907v-244.093h377.451v244.093c83.349 59.535 138.121 157.172 138.121 267.907zM347.684 936.186h329.823v-205.991c-48.819 28.577-104.781 44.056-164.316 44.056s-116.688-16.67-164.316-44.056l-1.191 205.991zM676.316-40.186h-328.633v205.991c48.819-28.577 104.781-44.056 164.316-44.056s116.688 16.67 164.316 44.056v-205.991zM512 144.372c-167.888 0-303.628 136.93-303.628 303.628 0 167.888 135.74 303.628 303.628 303.628s303.628-135.74 303.628-303.628c0-166.698-135.74-303.628-303.628-303.628z" />
<glyph unicode="&#xe618;" d="M797.767 736.149l-33.34-33.34c66.679-66.679 104.781-157.172 104.781-254.809 0-159.553-102.4-295.293-250.047-342.921v107.163l-238.14-138.121 238.14-138.121v119.070c176.223 47.628 297.674 207.181 297.674 392.93 0 109.544-42.865 211.944-119.070 288.149zM571.535 19.349l-92.874 54.772 92.874 54.772v-109.544zM404.837 790.921v-107.163l238.14 138.121-238.14 138.121v-119.070c-173.842-47.628-297.674-209.563-297.674-392.93 0-109.544 42.865-211.944 119.070-288.149l33.34 33.34c-66.679 69.060-104.781 159.553-104.781 254.809 0 157.172 104.781 295.293 250.047 342.921zM452.465 876.651l92.874-54.772-92.874-54.772v109.544z" />
<glyph unicode="&#xe619;" d="M528.516 464.516v459.148c125.523-9.91 227.923-109.006 227.923-227.923h36.335c0 145.342-125.523 264.258-280.774 264.258s-280.774-118.916-280.774-264.258c0-138.735 115.613-254.348 264.258-264.258v-459.148c-125.523 9.91-227.923 109.006-227.923 227.923h-36.335c0-145.342 125.523-264.258 280.774-264.258s280.774 118.916 280.774 264.258c0 138.735-115.613 254.348-264.258 264.258zM267.561 695.742c0 122.219 99.097 221.316 227.923 227.923v-459.148c-128.826 9.91-227.923 109.006-227.923 231.226zM528.516-27.665v459.148c125.523-9.91 227.923-109.006 227.923-227.923s-99.097-224.619-227.923-231.226z" />
<glyph unicode="&#xe61a;" d="M858.353 448c0 111.435-57.224 207.812-144.565 268.047v243.953h-403.576v-243.953c-87.341-60.235-144.565-156.612-144.565-268.047s57.224-207.812 144.565-268.047v-243.953h400.565v243.953c90.353 60.235 147.576 156.612 147.576 268.047zM343.341 929.882h337.318v-192.753c-51.2 27.106-108.424 42.165-168.659 42.165s-117.459-15.059-168.659-42.165v192.753zM680.659-33.882h-337.318v192.753c51.2-27.106 108.424-42.165 168.659-42.165s117.459 15.059 168.659 42.165v-192.753zM512 149.835c-171.671 0-313.224 132.518-313.224 298.165 0 162.635 141.553 298.165 313.224 298.165s313.224-132.518 313.224-298.165c0-162.635-141.553-298.165-313.224-298.165z" />
<glyph unicode="&#xe61b;" d="M1024 565.459h-391.529l-120.471 364.424-120.471-364.424h-391.529l316.235-228.894-120.471-370.447 316.235 225.882 316.235-222.871-120.471 367.435 316.235 228.894zM764.988 56.471l-252.988 177.694-252.988-180.706 96.376 295.153-252.988 183.718h313.224l96.376 289.129 96.376-289.129h313.224l-252.988-183.718 96.376-292.141z" />
<glyph unicode="&#xe61c;" d="M111.926 328.93c-61.916 0-111.926 52.391-111.926 119.070s50.009 119.070 111.926 119.070 111.926-52.391 111.926-119.070-50.009-119.070-111.926-119.070zM111.926 540.874c-47.628 0-88.112-40.484-88.112-92.874s40.484-92.874 88.112-92.874 88.112 40.484 88.112 92.874c0 52.391-40.484 92.874-88.112 92.874zM912.074 328.93c-61.916 0-111.926 52.391-111.926 119.070s50.009 119.070 111.926 119.070c61.916 0 111.926-52.391 111.926-119.070s-50.009-119.070-111.926-119.070zM912.074 540.874c-47.628 0-88.112-42.865-88.112-92.874 0-52.391 40.484-92.874 88.112-92.874s88.112 42.865 88.112 92.874c0 52.391-40.484 92.874-88.112 92.874zM512 328.93c-61.916 0-111.926 52.391-111.926 119.070s50.009 119.070 111.926 119.070 111.926-52.391 111.926-119.070-50.009-119.070-111.926-119.070zM512 540.874c-47.628 0-88.112-42.865-88.112-92.874 0-52.391 40.484-92.874 88.112-92.874s88.112 42.865 88.112 92.874c0 52.391-40.484 92.874-88.112 92.874z" />
<glyph unicode="&#xe61d;" d="M1024 345.6v204.8h-112.993c-10.593 38.841-24.717 74.152-42.372 109.462l77.683 77.683-144.772 144.772-77.683-77.683c-35.31 21.186-70.621 35.31-109.462 45.903v109.462h-204.8v-109.462c-38.841-10.593-74.152-24.717-109.462-45.903l-77.683 77.683-144.772-144.772 77.683-77.683c-17.655-31.779-35.31-70.621-42.372-109.462h-112.993v-204.8h116.524c10.593-35.31 24.717-70.621 45.903-102.4l-84.745-84.745 144.772-144.772 84.745 84.745c31.779-17.655 63.559-31.779 102.4-42.372v-120.055h204.8v123.586c35.31 10.593 70.621 24.717 102.4 42.372l84.745-84.745 144.772 144.772-84.745 84.745c17.655 31.779 35.31 67.090 45.903 102.4h116.524zM872.166 356.193c-10.593-31.779-21.186-63.559-38.841-95.338l-14.124-24.717 81.214-81.214-95.338-95.338-81.214 81.214-24.717-14.124c-28.248-17.655-60.028-28.248-91.807-38.841l-24.717-7.062v-109.462h-134.179v116.524l-24.717 7.062c-31.779 7.062-63.559 21.186-91.807 38.841l-24.717 14.124-84.745-84.745-95.338 95.338 81.214 81.214-14.124 24.717c-17.655 28.248-31.779 60.028-38.841 95.338l-7.062 24.717h-112.993v134.179h105.931l7.062 28.248c7.062 35.31 21.186 67.090 38.841 98.869l14.124 24.717-17.655 14.124-56.497 52.966 95.338 95.338 74.152-74.152 21.186 14.124c31.779 17.655 63.559 31.779 98.869 42.372l24.717 7.062v102.4h134.179v-102.4l24.717-7.062c35.31-10.593 70.621-24.717 98.869-42.372l24.717-14.124 74.152 74.152 95.338-95.338-70.621-70.621 14.124-24.717c17.655-31.779 31.779-63.559 38.841-98.869l7.062-28.248h105.931v-134.179h-109.462l-7.062-24.717zM512 628.083c-98.869 0-180.083-81.214-180.083-180.083s81.214-180.083 180.083-180.083 180.083 81.214 180.083 180.083c0 98.869-81.214 180.083-180.083 180.083zM512 303.228c-77.683 0-144.772 63.559-144.772 144.772 0 77.683 63.559 144.772 144.772 144.772s144.772-63.559 144.772-144.772c0-77.683-67.090-144.772-144.772-144.772z" />
<glyph unicode="&#xe61e;" d="M675.84 451.413c-116.053 153.6-232.107 303.787-348.16 457.387 23.893 17.067 47.787 37.547 75.093 54.613 129.707-170.667 259.413-341.333 389.12-512-129.707-170.667-259.413-341.333-389.12-512-23.893 20.48-47.787 37.547-75.093 54.613 116.053 153.6 228.693 303.787 348.16 457.387z" />
<glyph unicode="&#xe61f;" d="M348.16 444.587c116.053-153.6 232.107-303.787 348.16-457.387-23.893-17.067-47.787-37.547-75.093-54.613-129.707 170.667-259.413 341.333-389.12 512 129.707 170.667 259.413 341.333 389.12 512 23.893-20.48 47.787-37.547 75.093-54.613-116.053-153.6-228.693-303.787-348.16-457.387z" />
</font>
</defs>
</svg>
