<?xml version="1.0" standalone="no"?>
<!DOCTYPE svg PUBLIC "-//W3C//DTD SVG 1.1//EN" "http://www.w3.org/Graphics/SVG/1.1/DTD/svg11.dtd" >
<svg xmlns="http://www.w3.org/2000/svg">
<metadata>Generated by IcoMoon</metadata>
<defs>
<font id="icomoon" horiz-adv-x="1024">
<font-face units-per-em="1024" ascent="960" descent="-64" />
<missing-glyph horiz-adv-x="1024" />
<glyph unicode="&#x20;" d="" horiz-adv-x="512" />
<glyph unicode="&#xe600;" d="M512 935.372c268.314 0 486.076-217.762 486.076-486.076s-217.762-486.076-486.076-486.076-486.076 217.762-486.076 486.076 217.762 486.076 486.076 486.076zM512 961.296c-282.572 0-512-229.428-512-512s229.428-512 512-512 512 229.428 512 512-229.428 512-512 512v0zM719.392 674.835h-414.785c-20.739 0-37.59-16.851-37.59-37.59 0-10.37 3.889-20.739 11.666-27.22l77.772-77.772c3.889-77.772 66.106-139.99 142.582-146.471v-136.101h-67.403v-25.924h160.729v25.924h-67.403v136.101c76.476 6.481 138.694 68.699 142.582 146.471l76.476 76.476c7.777 7.777 12.962 16.851 12.962 28.516 0 20.739-16.851 37.59-37.59 37.59zM356.456 568.547l-59.625 58.329c-2.592 2.592-3.889 5.185-3.889 9.073 0 6.481 5.185 11.666 11.666 11.666h50.552v-79.068zM641.62 541.327c0-71.291-58.329-129.62-129.62-129.62s-129.62 58.329-129.62 129.62v107.585h260.537v-107.585zM727.17 628.172l-58.329-58.329v79.068h50.552c6.481 0 11.666-5.185 11.666-11.666 0-3.889-1.296-6.481-3.889-9.073z" />
<glyph unicode="&#xe601;" d="M1024 449.296c0-282.77-229.23-512-512-512s-512 229.23-512 512c0 282.77 229.23 512 512 512s512-229.23 512-512z" />
<glyph unicode="&#xe602;" d="M756.982 637.246c0 20.739-16.851 37.59-37.59 37.59h-414.785c-20.739 0-37.59-16.851-37.59-37.59 0-10.37 3.889-20.739 11.666-27.22l77.772-77.772c3.889-77.772 66.106-139.99 142.582-146.471v-136.101h-67.403v-25.924h160.729v25.924h-67.403v136.101c76.476 6.481 138.694 68.699 142.582 146.471l76.476 76.476c9.073 7.777 12.962 18.147 12.962 28.516zM292.942 637.246c0 6.481 5.185 11.666 11.666 11.666h50.552v-80.365l-59.625 58.329c-1.296 3.889-2.592 6.481-2.592 10.37zM512 410.41c-71.291 0-129.62 58.329-129.62 129.62v108.881h260.537v-108.881c-1.296-71.291-59.625-129.62-130.916-129.62zM727.17 628.172l-58.329-58.329v79.068h50.552c6.481 0 11.666-5.185 11.666-11.666 0-3.889-1.296-6.481-3.889-9.073z" />
<glyph unicode="&#xe603;" d="M1047.54 961.177h-976.92c-38.841 0-70.621-31.779-70.621-70.621 0-20.009 8.239-38.841 22.363-51.789l187.145-185.968c5.885-182.437 154.189-330.74 337.802-336.625v-355.457h-177.729v-23.54h378.998v23.54h-177.729v355.457c183.614 5.885 331.917 154.189 337.802 336.625v0l185.968 185.968c14.124 12.947 23.54 31.779 23.54 51.789 0 38.841-31.779 70.621-70.621 70.621zM38.841 855.246c-9.416 9.416-15.301 22.363-15.301 35.31 0 25.894 21.186 47.080 47.080 47.080h138.887v-251.88l-170.667 169.49zM559.080 339.715c-180.083 0-326.032 145.949-326.032 324.855v273.067h652.064v-273.067c0-178.906-145.949-324.855-326.032-324.855zM1079.32 855.246l-170.667-169.49v251.88h138.887c25.894 0 47.080-21.186 47.080-47.080 0-12.947-5.885-25.894-15.301-35.31z" horiz-adv-x="1118" />
<glyph unicode="&#xe604;" d="M512 960c-281.6 0-512-230.4-512-512s230.4-512 512-512 512 230.4 512 512-230.4 512-512 512zM512-33.882c-265.035 0-481.882 216.847-481.882 481.882s216.847 481.882 481.882 481.882 481.882-216.847 481.882-481.882-216.847-481.882-481.882-481.882zM530.071 649.788h-30.118v-182.212h-197.271v-30.118h197.271v-195.765h30.118v195.765h180.706v30.118h-180.706z" />
<glyph unicode="&#xe605;" d="M510.494 960c-281.6 0-512-230.4-512-512s230.4-512 512-512 512 230.4 512 512-230.4 512-512 512zM510.494-33.882c-265.035 0-481.882 216.847-481.882 481.882s216.847 481.882 481.882 481.882 481.882-216.847 481.882-481.882-216.847-481.882-481.882-481.882zM670.118 591.059l-21.082 22.588-138.541-138.541-138.541 138.541-21.082-22.588 138.541-137.035-138.541-138.541 21.082-21.082 138.541 138.541 138.541-138.541 21.082 21.082-138.541 138.541z" />
<glyph unicode="&#xe606;" d="M0 961.177v-1024h1024v1024h-1024zM1000.46 937.637v-216.57h-976.92v216.57h976.92zM23.54-39.283v736.809h976.92v-736.809h-976.92zM337.802 841.122h65.913v-23.54h-65.913v23.54zM628.524 841.122h65.913v-23.54h-65.913v23.54zM257.766 508.028h101.223v-391.945h23.54v415.485h-124.763zM548.487 508.028h101.223v-391.945h23.54v415.485h-124.763z" />
<glyph unicode="&#xe607;" d="M512 935.372c268.314 0 486.076-217.762 486.076-486.076s-217.762-486.076-486.076-486.076-486.076 217.762-486.076 486.076 217.762 486.076 486.076 486.076zM512 961.296c-282.572 0-512-229.428-512-512s229.428-512 512-512 512 229.428 512 512-229.428 512-512 512v0zM286.461 674.835v-451.078h451.078v451.078h-451.078zM711.615 648.911v-76.476h-399.23v76.476h399.23zM312.385 249.681v298.127h399.23v-298.127h-399.23zM438.116 624.284h28.516v-25.924h-28.516v25.924zM561.256 624.284h28.516v-25.924h-28.516v25.924zM404.415 466.147h34.997v-158.137h25.924v184.061h-60.922zM527.554 466.147h34.997v-158.137h25.924v184.061h-60.922z" />
<glyph unicode="&#xe608;" d="M1024 449.296c0-282.77-229.23-512-512-512s-512 229.23-512 512c0 282.77 229.23 512 512 512s512-229.23 512-512z" />
<glyph unicode="&#xe609;" d="M438.116 624.284h28.516v-25.924h-28.516v25.924z" />
<glyph unicode="&#xe60a;" d="M561.256 624.284h28.516v-25.924h-28.516v25.924z" />
<glyph unicode="&#xe60b;" d="M404.415 466.147h34.997v-158.137h25.924v184.061h-60.922z" />
<glyph unicode="&#xe60c;" d="M527.554 466.147h34.997v-158.137h25.924v184.061h-60.922z" />
<glyph unicode="&#xe60d;" d="M286.461 674.835v-451.078h451.078v451.078h-451.078zM711.615 648.911v-76.476h-399.23v76.476h399.23zM312.385 249.681v298.127h399.23v-298.127h-399.23z" />
<glyph unicode="&#xe60e;" d="M628.856 735.925v-298.767h208.414v22.889h-184.32v275.878zM640.904 961.205c-274.673 0-499.953-214.438-514.409-484.292l-109.628 109.628-16.866-18.071 137.336-137.336 137.336 137.336-16.866 16.866-108.424-107.219c15.661 255.398 228.894 458.993 490.315 458.993 272.264 0 492.725-219.256 492.725-487.906 0-269.854-220.461-489.111-491.52-489.111-131.313 0-254.193 50.598-348.16 143.36l-15.661-16.866c97.581-96.376 226.485-149.384 363.821-149.384 284.311 0 515.614 228.894 515.614 512 0 281.901-231.304 512-515.614 512z" horiz-adv-x="1157" />
<glyph unicode="&#xe60f;" d="M512 935.372c268.314 0 486.076-217.762 486.076-486.076s-217.762-486.076-486.076-486.076-486.076 217.762-486.076 486.076 217.762 486.076 486.076 486.076zM512 961.296c-282.572 0-512-229.428-512-512s229.428-512 512-512 512 229.428 512 512-229.428 512-512 512v0zM499.038 571.139v-134.805h95.919v25.924h-69.995v108.881zM512 674.835c-114.066 0-208.689-85.549-224.243-197.023l-34.997 34.997-18.147-18.147 63.514-63.514 63.514 63.514-18.147 18.147-29.813-29.813c18.147 94.623 99.808 165.914 198.319 165.914 110.177 0 199.615-89.438 199.615-199.615s-89.438-199.615-199.615-199.615c-53.144 0-103.696 20.739-141.286 58.329l-18.147-18.147c42.775-42.775 99.808-66.106 159.433-66.106 124.435 0 225.539 101.104 225.539 225.539s-101.104 225.539-225.539 225.539z" />
<glyph unicode="&#xe610;" d="M1024 449.296c0-282.77-229.23-512-512-512s-512 229.23-512 512c0 282.77 229.23 512 512 512s512-229.23 512-512z" />
<glyph unicode="&#xe611;" d="M499.038 571.139v-134.805h95.919v25.924h-69.995v108.881z" />
<glyph unicode="&#xe612;" d="M512 674.835c-114.066 0-208.689-85.549-224.243-197.023l-34.997 34.997-18.147-18.147 63.514-63.514 63.514 63.514-18.147 18.147-29.813-29.813c18.147 94.623 99.808 165.914 198.319 165.914 110.177 0 199.615-89.438 199.615-199.615s-89.438-199.615-199.615-199.615c-53.144 0-103.696 20.739-141.286 58.329l-18.147-18.147c42.775-42.775 99.808-66.106 159.433-66.106 124.435 0 225.539 101.104 225.539 225.539s-101.104 225.539-225.539 225.539z" />
<glyph unicode="&#xe613;" d="M860.395-64h-802.722c-40.018 0-57.674 29.425-57.674 57.674v118.878c0 37.664 17.655 65.913 52.966 81.214 47.080 21.186 169.49 65.913 248.349 89.453 0 4.708 0 14.124 0 18.832 0 27.071-2.354 45.903-9.416 60.028-9.416 20.009-21.186 55.32-25.894 87.099-11.77 15.301-27.071 43.549-37.664 92.984-9.416 47.080-4.708 65.913 1.177 82.391 1.177 2.354 1.177 2.354 1.177 3.531 1.177 7.062-1.177 57.674-8.239 101.223-5.885 30.602 1.177 96.515 42.372 150.657 28.248 32.956 77.683 74.152 167.136 80.037h52.966c90.63-5.885 140.064-47.080 167.136-81.214 41.195-54.143 48.257-118.878 42.372-150.657-8.239-43.549-10.593-94.161-8.239-102.4 0-1.177 0-1.177 1.177-2.354 7.062-17.655 11.77-35.31 2.354-83.568-9.416-49.434-25.894-77.683-37.664-92.984-4.708-31.779-16.478-65.913-25.894-87.099-5.885-12.947-9.416-32.956-9.416-60.028 0-3.531 0-14.124 0-18.832 77.683-23.54 201.269-68.267 248.349-89.453 34.133-15.301 52.966-42.372 52.966-81.214v-118.878c0-25.894-17.655-55.32-57.674-55.32zM483.752 936.46h-50.611c-80.037-4.708-124.763-42.372-148.303-71.798-36.487-47.080-43.549-104.754-38.841-131.825 7.062-42.372 10.593-97.692 8.239-110.639-1.177-2.354-1.177-4.708-2.354-5.885-4.708-11.77-9.416-25.894-1.177-70.621 9.416-48.257 23.54-72.975 34.133-84.745l2.354-2.354v-3.531c3.531-30.602 15.301-63.559 23.54-83.568 8.239-16.478 11.77-38.841 11.77-69.444 0-24.717 0-35.31-15.301-40.018-77.683-23.54-201.269-68.267-247.172-88.276-25.894-11.77-38.841-30.602-38.841-58.851v-118.878c2.354-5.885 3.531-36.487 36.487-36.487h803.899c32.956 0 34.133 30.602 34.133 34.133v118.878c0 28.248-12.947 48.257-38.841 58.851-47.080 21.186-169.49 65.913-247.172 88.276-15.301 4.708-15.301 15.301-15.301 40.018 0 30.602 3.531 52.966 11.77 69.444 9.416 20.009 20.009 52.966 23.54 83.568v3.531l2.354 2.354c10.593 11.77 24.717 36.487 34.133 84.745 8.239 44.726 3.531 58.851 0 69.444-1.177 2.354-1.177 4.708-2.354 5.885-2.354 12.947 1.177 69.444 8.239 111.816 4.708 27.071-1.177 83.568-38.841 131.825-23.54 31.779-68.267 69.444-149.48 74.152z" horiz-adv-x="918" />
<glyph unicode="&#xe614;" d="M512 935.372c268.314 0 486.076-217.762 486.076-486.076s-217.762-486.076-486.076-486.076-486.076 217.762-486.076 486.076 217.762 486.076 486.076 486.076zM512 961.296c-282.572 0-512-229.428-512-512s229.428-512 512-512 512 229.428 512 512-229.428 512-512 512v0zM681.803 230.238h-339.605c-20.739 0-32.405 15.554-32.405 32.405v49.256c0 19.443 9.073 33.701 27.22 41.478 19.443 7.777 67.403 25.924 99.808 36.294 0 0 0 1.296 0 1.296 0 10.37-1.296 16.851-2.592 22.035-3.889 7.777-9.073 22.035-11.666 36.294-7.777 10.37-12.962 23.332-15.554 40.182-3.889 19.443-2.592 29.813 1.296 38.886 0 3.889 0 23.332-3.889 40.182-2.592 16.851 1.296 46.663 19.443 69.995 11.666 15.554 34.997 34.997 76.476 37.59h22.035c41.478-2.592 64.81-22.035 76.476-37.59 18.147-23.332 23.332-51.848 19.443-69.995-2.592-16.851-3.889-36.294-3.889-40.182 3.889-9.073 5.185-19.443 1.296-38.886-3.889-16.851-9.073-31.109-15.554-40.182-2.592-14.258-7.777-28.516-11.666-36.294-2.592-3.889-2.592-11.666-2.592-22.035 0 0 0-1.296 0-1.296 33.701-10.37 81.661-27.22 101.104-36.294 16.851-7.777 27.22-22.035 27.22-41.478v-49.256c0-16.851-10.37-32.405-32.405-32.405zM522.37 648.911h-20.739c-31.109-2.592-47.959-15.554-57.033-27.22-14.258-18.147-16.851-38.886-14.258-49.256 2.592-15.554 5.185-42.775 3.889-49.256 0-1.296-1.296-2.592-1.296-3.889-1.296-3.889-2.592-7.777 0-24.628 3.889-19.443 9.073-28.516 12.962-32.405l2.592-2.592v-3.889c1.296-11.666 6.481-24.628 9.073-32.405 3.889-7.777 5.185-18.147 5.185-32.405 0-10.37 0-20.739-11.666-24.628-32.405-9.073-84.253-28.516-103.696-36.294-7.777-3.889-11.666-9.073-11.666-18.147v-49.256c0-6.481 5.185-6.481 6.481-6.481h339.605c1.296 0 6.481 0 6.481 6.481v49.256c0 9.073-3.889 14.258-11.666 18.147-19.443 9.073-71.291 27.22-103.696 36.294-11.666 3.889-11.666 14.258-11.666 24.628 0 14.258 1.296 24.628 5.185 32.405s7.777 20.739 9.073 32.405v3.889l2.592 2.592c2.592 3.889 9.073 12.962 12.962 32.405 3.889 16.851 1.296 20.739 0 24.628 0 1.296-1.296 2.592-1.296 3.889-1.296 7.777 0 33.701 3.889 50.552 1.296 9.073-1.296 31.109-14.258 49.256-9.073 10.37-25.924 24.628-57.033 25.924z" />
<glyph unicode="&#xe615;" d="M1024 449.296c0-282.77-229.23-512-512-512s-512 229.23-512 512c0 282.77 229.23 512 512 512s512-229.23 512-512z" />
<glyph unicode="&#xe616;" d="M681.803 230.238h-339.605c-20.739 0-32.405 15.554-32.405 32.405v49.256c0 19.443 9.073 33.701 27.22 41.478 19.443 7.777 67.403 25.924 99.808 36.294 0 0 0 1.296 0 1.296 0 10.37-1.296 16.851-2.592 22.035-3.889 7.777-9.073 22.035-11.666 36.294-7.777 10.37-12.962 23.332-15.554 40.182-3.889 19.443-2.592 29.813 1.296 38.886 0 3.889 0 23.332-3.889 40.182-2.592 16.851 1.296 46.663 19.443 69.995 11.666 15.554 34.997 34.997 76.476 37.59h22.035c41.478-2.592 64.81-22.035 76.476-37.59 18.147-23.332 23.332-51.848 19.443-69.995-2.592-16.851-3.889-36.294-3.889-40.182 3.889-9.073 5.185-19.443 1.296-38.886-3.889-16.851-9.073-31.109-15.554-40.182-2.592-14.258-7.777-28.516-11.666-36.294-2.592-3.889-2.592-11.666-2.592-22.035 0 0 0-1.296 0-1.296 33.701-10.37 81.661-27.22 101.104-36.294 16.851-7.777 27.22-22.035 27.22-41.478v-49.256c0-16.851-10.37-32.405-32.405-32.405zM522.37 648.911h-20.739c-31.109-2.592-47.959-15.554-57.033-27.22-14.258-18.147-16.851-38.886-14.258-49.256 2.592-15.554 5.185-42.775 3.889-49.256 0-1.296-1.296-2.592-1.296-3.889-1.296-3.889-2.592-7.777 0-24.628 3.889-19.443 9.073-28.516 12.962-32.405l2.592-2.592v-3.889c1.296-11.666 6.481-24.628 9.073-32.405 3.889-7.777 5.185-18.147 5.185-32.405 0-10.37 0-20.739-11.666-24.628-32.405-9.073-84.253-28.516-103.696-36.294-7.777-3.889-11.666-9.073-11.666-18.147v-49.256c0-6.481 5.185-6.481 6.481-6.481h339.605c1.296 0 6.481 0 6.481 6.481v49.256c0 9.073-3.889 14.258-11.666 18.147-19.443 9.073-71.291 27.22-103.696 36.294-11.666 3.889-11.666 14.258-11.666 24.628 0 14.258 1.296 24.628 5.185 32.405s7.777 20.739 9.073 32.405v3.889l2.592 2.592c2.592 3.889 9.073 12.962 12.962 32.405 3.889 16.851 1.296 20.739 0 24.628 0 1.296-1.296 2.592-1.296 3.889-1.296 7.777 0 33.701 3.889 50.552 1.296 9.073-1.296 31.109-14.258 49.256-9.073 10.37-25.924 24.628-57.033 25.924z" />
<glyph unicode="&#xe617;" d="M488.46-64c-269.536 0-488.46 220.101-488.46 491.991 0 201.269 120.055 380.175 306.023 455.503l8.239-21.186c-176.552-71.798-290.722-242.464-290.722-434.317 0-258.943 208.331-468.451 464.92-468.451s464.92 209.508 464.92 468.451c0 191.853-114.17 362.52-291.899 434.317l9.416 21.186c185.968-75.329 306.023-254.234 306.023-456.68 0-270.713-218.924-490.814-488.46-490.814zM476.69 960h23.54v-486.106h-23.54v486.106z" horiz-adv-x="977" />
<glyph unicode="&#xe618;" d="M512 935.372c268.314 0 486.076-217.762 486.076-486.076s-217.762-486.076-486.076-486.076-486.076 217.762-486.076 486.076 217.762 486.076 486.076 486.076zM512 961.296c-282.572 0-512-229.428-512-512s229.428-512 512-512 512 229.428 512 512-229.428 512-512 512v0zM512 236.719c-117.954 0-215.17 95.919-215.17 215.17 0 88.142 53.144 165.914 134.805 199.615l9.073-24.628c-72.587-28.516-117.954-97.215-117.954-174.987 0-103.696 84.253-189.246 189.246-189.246s189.246 84.253 189.246 189.246c0 77.772-46.663 146.471-117.954 174.987l9.073 24.628c81.661-32.405 134.805-111.473 134.805-199.615 0-119.251-97.215-215.17-215.17-215.17zM499.038 674.835h25.924v-204.8h-25.924v204.8z" />
<glyph unicode="&#xe619;" d="M1024 449.296c0-282.77-229.23-512-512-512s-512 229.23-512 512c0 282.77 229.23 512 512 512s512-229.23 512-512z" />
<glyph unicode="&#xe61a;" d="M512 238.015c-117.954 0-215.17 95.919-215.17 215.17 0 88.142 53.144 165.914 134.805 199.615l9.073-24.628c-72.587-28.516-117.954-97.215-117.954-174.987 0-103.696 84.253-189.246 189.246-189.246s189.246 84.253 189.246 189.246c0 77.772-46.663 146.471-117.954 174.987l9.073 24.628c81.661-32.405 134.805-111.473 134.805-199.615 0-117.954-97.215-215.17-215.17-215.17z" />
<glyph unicode="&#xe61b;" d="M499.038 677.428h25.924v-204.8h-25.924v204.8z" />
<glyph unicode="&#xe61c;" d="M0 960h1024l-1024-1024z" />
<glyph unicode="&#xe61d;" d="M1018.849 964.383l9.527-9.527-1024.179-1024.179-9.527 9.527 1024.179 1024.179z" />
<glyph unicode="&#xe61e;" d="M519.062 715.182v244.818h-378.998v-244.818c-84.745-58.851-140.064-156.543-140.064-267.182s55.32-208.331 140.064-267.182v-244.818h378.998v244.818c84.745 58.851 140.064 156.543 140.064 267.182s-55.32 208.331-140.064 267.182zM162.428 936.46h333.094v-207.154c-49.434 28.248-105.931 44.726-167.136 44.726s-117.701-16.478-167.136-44.726v207.154zM496.699-40.46h-334.271v205.977c49.434-28.248 105.931-44.726 167.136-44.726s117.701 16.478 167.136 44.726v-205.977zM329.563 144.331c-169.49 0-307.2 136.533-307.2 303.669s137.71 303.669 307.2 303.669c169.49 0 307.2-136.533 307.2-303.669s-137.71-303.669-307.2-303.669z" horiz-adv-x="659" />
<glyph unicode="&#xe61f;" d="M512 935.372c268.314 0 486.076-217.762 486.076-486.076s-217.762-486.076-486.076-486.076-486.076 217.762-486.076 486.076 217.762 486.076 486.076 486.076zM512 961.296c-282.572 0-512-229.428-512-512s229.428-512 512-512 512 229.428 512 512-229.428 512-512 512v0zM661.063 449.296c0 47.959-23.332 90.734-59.625 117.954v107.585h-174.987v-107.585c-36.294-27.22-59.625-69.995-59.625-117.954s23.332-90.734 59.625-117.954v-107.585h176.284v107.585c34.997 27.22 58.329 69.995 58.329 117.954zM452.375 648.911h124.435v-66.106c-19.443 9.073-40.182 14.258-62.218 14.258s-42.775-5.185-62.218-14.258v66.106zM392.749 449.296c0 67.403 54.441 121.843 121.843 121.843s121.843-54.441 121.843-121.843-54.441-121.843-121.843-121.843c-67.403 0-121.843 54.441-121.843 121.843zM575.514 249.681h-124.435v66.106c19.443-9.073 40.182-14.258 62.218-14.258s42.775 5.185 62.218 14.258v-66.106z" />
<glyph unicode="&#xe620;" d="M1024 449.296c0-282.77-229.23-512-512-512s-512 229.23-512 512c0 282.77 229.23 512 512 512s512-229.23 512-512z" />
<glyph unicode="&#xe621;" d="M661.063 449.296c0 47.959-23.332 90.734-59.625 117.954v107.585h-174.987v-107.585c-36.294-27.22-59.625-69.995-59.625-117.954s23.332-90.734 59.625-117.954v-107.585h176.284v107.585c34.997 27.22 58.329 69.995 58.329 117.954zM452.375 648.911h124.435v-66.106c-19.443 9.073-40.182 14.258-62.218 14.258s-42.775-5.185-62.218-14.258v66.106zM392.749 449.296c0 67.403 54.441 121.843 121.843 121.843s121.843-54.441 121.843-121.843-54.441-121.843-121.843-121.843c-67.403 0-121.843 54.441-121.843 121.843zM575.514 249.681h-124.435v66.106c19.443-9.073 40.182-14.258 62.218-14.258s42.775 5.185 62.218 14.258v-66.106z" />
</font>
</defs>
</svg>
